<svg width="79" height="79" fill="none" xmlns="http://www.w3.org/2000/svg"><path fill-rule="evenodd" clip-rule="evenodd" d="M39.5 75.05c19.056 0 34.504-15.916 34.504-35.55 0-19.634-15.448-35.55-34.504-35.55-19.056 0-34.504 15.916-34.504 35.55 0 19.634 15.448 35.55 34.504 35.55zm0 3.95c21.174 0 38.338-17.685 38.338-39.5S60.674 0 39.5 0 1.162 17.685 1.162 39.5 18.326 79 39.5 79z" fill="#F6F6F6"/><path d="M24.007 27.965h-4.566c-.054 1.408-1.981 3.808-4.86 3.808v3.875c2.474 0 4.083-.947 4.565-1.713h.208v17.1h4.653v-23.07zm13.7 23.385c5.037 0 8.683-2.782 8.705-6.522-.022-2.884-2.168-5.238-4.862-5.7v-.158c2.343-.495 4.007-2.59 4.03-5.114-.023-3.57-3.351-6.206-7.873-6.206-4.555 0-7.883 2.636-7.861 6.206-.022 2.524 1.642 4.619 4.029 5.114v.158c-2.737.462-4.883 2.816-4.861 5.7-.022 3.74 3.613 6.522 8.693 6.522zm0-3.582c-2.266 0-3.788-1.363-3.766-3.323-.022-1.994 1.576-3.436 3.766-3.436 2.157 0 3.745 1.442 3.767 3.436-.022 1.96-1.533 3.323-3.767 3.323zm0-10.307c-1.905 0-3.263-1.273-3.24-3.097-.023-1.792 1.313-3.042 3.24-3.042 1.894 0 3.22 1.25 3.241 3.042-.022 1.824-1.368 3.097-3.24 3.097zm26.713.181h-5.387V32.29h-3.668v5.35h-5.387v3.718h5.387v5.35h3.668v-5.35h5.387v-3.717z" fill="#F6F6F6"/></svg>