<svg width="182" height="33" fill="none" xmlns="http://www.w3.org/2000/svg"><path d="M33.585 3.891H19.554V29.11h14.031V3.891z" fill="#FF5F00"/><path d="M20.445 16.5a16.012 16.012 0 016.123-12.61 16.038 16.038 0 100 25.219 16.01 16.01 0 01-6.123-12.61z" fill="#EB001B"/><path d="M52.518 16.5a16.035 16.035 0 01-25.947 12.61 16.045 16.045 0 000-25.219 16.038 16.038 0 0123.507 4.1 16.035 16.035 0 012.44 8.51z" fill="#F79E1B"/><path d="M80.55 22.221v-6.74c0-2.578-1.569-4.264-4.263-4.264-1.35 0-2.814.444-3.822 1.908-.783-1.23-1.908-1.908-3.597-1.908-1.125 0-2.25.34-3.138 1.57v-1.348h-2.355v10.78h2.355v-5.953c0-1.91 1.008-2.814 2.577-2.814s2.355 1.008 2.355 2.814v5.952h2.355v-5.952c0-1.91 1.125-2.814 2.577-2.814 1.569 0 2.352 1.008 2.352 2.814v5.952l2.604.003zm34.926-10.779h-3.819V8.184h-2.355v3.258h-2.13v2.13h2.13v4.947c0 2.472 1.008 3.924 3.702 3.924 1.008 0 2.13-.339 2.916-.786l-.681-2.025c-.608.375-1.31.57-2.025.561-1.125 0-1.572-.68-1.572-1.79v-4.83h3.822v-2.13h.012zm19.989-.234c-1.35 0-2.25.678-2.814 1.57v-1.35h-2.355v10.781h2.355v-6.072c0-1.79.786-2.81 2.25-2.81.444 0 1.008.12 1.464.221l.681-2.25c-.471-.09-1.137-.09-1.581-.09zm-30.204 1.122c-1.125-.783-2.697-1.122-4.383-1.122-2.694 0-4.488 1.347-4.488 3.48 0 1.791 1.35 2.811 3.702 3.138l1.125.12c1.23.22 1.911.561 1.911 1.122 0 .786-.903 1.35-2.472 1.35a6.21 6.21 0 01-3.6-1.128l-1.122 1.794c1.23.9 2.916 1.347 4.605 1.347 3.138 0 4.944-1.467 4.944-3.48 0-1.91-1.467-2.919-3.702-3.258l-1.125-.12c-1.008-.114-1.794-.339-1.794-1.005 0-.783.786-1.23 2.028-1.23 1.35 0 2.694.564 3.375.903l.996-1.908v-.003zm62.64-1.122c-1.344 0-2.247.678-2.808 1.57v-1.35h-2.355v10.781h2.355v-6.072c0-1.79.783-2.81 2.25-2.81.444 0 1.005.12 1.464.221l.681-2.223c-.459-.12-1.128-.12-1.584-.12l-.003.003zM137.82 16.83c0 3.258 2.25 5.613 5.73 5.613 1.569 0 2.694-.339 3.819-1.23l-1.125-1.908c-.9.678-1.791 1.005-2.811 1.005-1.911 0-3.258-1.347-3.258-3.48 0-2.025 1.35-3.372 3.258-3.48 1.008 0 1.908.342 2.811 1.008l1.125-1.908c-1.125-.903-2.25-1.23-3.819-1.23-3.48-.012-5.73 2.355-5.73 5.61zm21.78 0v-5.385h-2.355v1.35c-.783-1.01-1.908-1.572-3.375-1.572-3.033 0-5.388 2.355-5.388 5.61 0 3.258 2.355 5.613 5.388 5.613 1.572 0 2.697-.564 3.375-1.569v1.347h2.355V16.83zm-8.646 0c0-1.908 1.23-3.48 3.258-3.48 1.908 0 3.255 1.467 3.255 3.48 0 1.911-1.347 3.48-3.255 3.48-2.016-.117-3.258-1.58-3.258-3.48zm-28.176-5.622c-3.138 0-5.388 2.25-5.388 5.61 0 3.375 2.25 5.61 5.505 5.61 1.569 0 3.141-.444 4.38-1.464l-1.122-1.686c-.9.681-2.028 1.125-3.138 1.125-1.467 0-2.919-.68-3.258-2.58h7.965v-.9c.105-3.465-1.92-5.715-4.944-5.715zm0 2.025c1.464 0 2.472.903 2.694 2.58h-5.61c.222-1.455 1.23-2.58 2.916-2.58zm58.5 3.6V7.18h-2.358v5.61c-.783-1.008-1.908-1.569-3.375-1.569-3.033 0-5.388 2.355-5.388 5.61 0 3.258 2.355 5.613 5.388 5.613 1.572 0 2.697-.564 3.375-1.569v1.347h2.355v-5.39l.003.002zm-8.649 0c0-1.91 1.23-3.48 3.258-3.48 1.908 0 3.255 1.464 3.255 3.48 0 1.908-1.347 3.48-3.255 3.48-2.028-.12-3.258-1.584-3.258-3.48zm-78.825 0V11.44h-2.355v1.35c-.783-1.01-1.908-1.572-3.375-1.572-3.033 0-5.388 2.355-5.388 5.61 0 3.258 2.355 5.613 5.388 5.613 1.569 0 2.694-.564 3.375-1.569v1.347h2.355V16.83v.003zm-8.751 0c0-1.91 1.23-3.48 3.258-3.48 1.908 0 3.255 1.464 3.255 3.48 0 1.908-1.347 3.48-3.255 3.48-2.028-.12-3.258-1.584-3.258-3.48z" fill="#fff"/></svg>