<svg width="102" height="33" fill="none" xmlns="http://www.w3.org/2000/svg"><path d="M101.878 32.447h-7.66c-.28-1.315-.579-2.602-.816-3.902-.1-.535-.274-.745-.892-.739-3.074.04-6.145.03-9.216.006-.465-.003-.648.146-.79.56a95.571 95.571 0 01-1.361 3.683c-.061.164-.274.39-.423.39-2.77.024-5.54.017-8.385.017.517-1.22 1.01-2.386 1.51-3.548l10.712-24.95c.773-1.802 1.933-2.557 3.927-2.557h6.726c.222 1.016.444 2.015.66 3.016l5.268 24.658c.229 1.05.493 2.097.74 3.144v.222zm-10.025-11.03l-2.426-11.364a35.337 35.337 0 00-.1-.018l-4.225 11.383h6.75zM68.506.857c1.01.183 2.03.335 3.031.56.913.207 1.808.493 2.78.76l-1.434 6.55c-1.282-.365-2.505-.79-3.765-1.059-1.72-.371-3.485-.514-5.204-.045a5.32 5.32 0 00-1.96 1.02c-.944.79-.96 1.926-.055 2.757.62.572 1.36 1.044 2.097 1.476 1.674.983 3.436 1.838 5.064 2.891 1.917 1.236 3.317 2.94 3.613 5.24.517 4.07-1.023 7.275-4.526 9.545-2.2 1.428-4.693 2.064-7.29 2.301a26.651 26.651 0 01-10.642-1.18c-.232-.074-.457-.168-.685-.256-.067-.03-.128-.077-.231-.14l1.485-6.781c.59.252 1.144.505 1.71.727 2.709 1.065 5.5 1.552 8.4 1.023a6.072 6.072 0 002.161-.883c1.385-.907 1.516-2.611.256-3.676-.831-.7-1.826-1.218-2.773-1.78-1.476-.88-3.043-1.626-4.443-2.61-1.79-1.26-3.086-2.94-3.333-5.173-.365-3.342.904-6.057 3.53-8.166 2.286-1.835 5.001-2.648 7.892-2.991.162-.019.32-.07.478-.11h3.844zm-29.786.578l-1.251 2.937c-3.945 9.182-7.892 18.364-11.818 27.553-.186.438-.414.554-.87.548a358.683 358.683 0 00-7.466.006c-.527.009-.7-.17-.822-.633-2.106-8.029-4.252-16.046-6.336-24.077-.384-1.476-1.15-2.48-2.587-3.099C5.269 3.677 2.877 2.983.439 2.417l-.317-.076c.012-.931.012-.931.92-.931h13.065c2.063 0 3.555 1.172 3.947 3.165 1.105 5.655 2.186 11.31 3.278 16.961l.174.843c.115-.207.191-.325.243-.45 2.706-6.68 5.411-13.36 8.102-20.044.146-.366.329-.487.73-.487 2.526.021 5.052.012 7.579.012.164 0 .328.015.56.024zm-3.303 31.031l6.806-31.022h8.247l-1.016 4.66C47.585 14.637 45.71 23.17 43.86 31.71c-.128.593-.344.782-.974.77-2.261-.043-4.523-.016-6.787-.016h-.682z" fill="#fff"/></svg>