<svg width="33" height="33" fill="none" xmlns="http://www.w3.org/2000/svg"><path d="M32.275 27.7c0 1.343-.53 2.63-1.472 3.58a5.006 5.006 0 01-3.553 1.484H4.985c-1.321 0-2.59-.53-3.524-1.471A5.045 5.045 0 010 27.74V5.079a4.876 4.876 0 011.407-3.427c.447-.45.977-.806 1.56-1.05a4.772 4.772 0 011.84-.368h22.661c1.274 0 2.497.51 3.398 1.418a4.863 4.863 0 011.407 3.425V27.7l.002-.002z" fill="#EBAB1F"/><path d="M2.569 12.897v8.266l-1.463.333v-8.268l1.463-.331zm3.876 1.065c-.904.204-1.458 1.23-1.458 1.23v-.771l-1.422.313v4.93a1.551 1.551 0 011.415.156v-2.41c.011-1.153.34-1.826 1.024-1.981.602-.137.83.315.818 1.014v3.766l1.395-.317.01-3.754c.01-1.839-.724-2.417-1.782-2.176zm2.11-.358l.798-.18v-1.158l1.415-.317v1.155l1.004-.229-.014 1.252-1.006.227-.008 3.13c.008.383.074.62.5.522a3 3 0 00.448-.137l.004 1.175a3.63 3.63 0 01-.855.302c-.808.188-1.507-.343-1.507-1.424l.005-3.249-.8.182.016-1.251zm4.92 2.368c0 .13-.003.238.02.366.105.634.414 1.128 1.05.983.584-.131.777-.523.891-.954l1.48-.335c-.155.956-.668 2.162-2.284 2.526-1.45.328-2.326-.515-2.565-1.958-.264-1.578.144-3.934 2.293-4.42 1.585-.358 2.325.588 2.53 1.81.081.485.077.846.048 1.198l-3.462.784zm2.058-1.553a1.303 1.303 0 00-.023-.27c-.087-.52-.37-.923-.997-.782-.647.147-.965.697-1.024 1.512l2.044-.46zm4.902-1.818c-.985.235-1.457.926-1.465 2.282l-.01 2.577-1.412.319v-6.21l1.362-.31c.02.153.05.614.049 1.117.229-.795.544-1.202 1.476-1.414v1.64zm5.015 3.343l-.008.002-1.418.323a2.823 2.823 0 01-.237-.662c-.2.431-.476.923-1.473 1.15-1.059.239-1.661-.488-1.791-1.189-.311-1.657.866-2.46 2.073-2.771.435-.112.8-.176 1.212-.282l-.021-.372c-.01-.452-.113-1.005-.87-.834-.677.152-.712.583-.772.897l-1.442.327c.018-1 .451-1.965 2.122-2.342 1.307-.296 2.395.095 2.386 1.715v2.945s.035.498.09.737a.94.94 0 00.149.356zm-1.665-2.422a7.39 7.39 0 00-.923.27c-.764.315-1.02.674-.925 1.179.064.346.31.566.767.462.976-.221 1.061-1.152 1.079-1.813l.002-.098zm6.76-.792c-.08 1.195-.633 2.292-2.22 2.65-1.36.307-2.244-.415-2.512-1.84-.323-1.726.167-4.08 2.16-4.53 1.743-.396 2.437.875 2.507 1.65l-1.372.31c-.097-.456-.319-.899-.952-.754-.999.225-1.08 1.97-.901 2.926.155.828.524 1.126 1.033 1.012.466-.106.735-.466.843-1.102l1.415-.322zM7.359 23.29l-2.001-1.371v3.364a.187.187 0 01-.185.186.184.184 0 01-.185-.186l-.003-4.124a.869.869 0 00-.266-.585.855.855 0 00-1.185 0 .869.869 0 00-.265.585l.002 7.183c0 1.29 1.041 2.342 2.322 2.342h.153c1.263 0 2.273-1.032 2.273-2.305l.004-3.79c0-.498-.274-1-.666-1.3h.002zm-5.802-1.071a.656.656 0 00-.445.288.668.668 0 00.485 1.032.655.655 0 00.27-.03l.998-.24V21.9l-1.308.318zm0 1.758a.66.66 0 00-.533.542.671.671 0 00.323.691.657.657 0 00.52.06l.998-.243v-1.365l-1.308.315zm-.485 2.562a.663.663 0 00.296.41c.15.092.329.12.498.08l.999-.242v-1.365l-1.306.316a.67.67 0 00-.488.803v-.002z" fill="#000"/></svg>