<svg width="51" height="64" fill="none" xmlns="http://www.w3.org/2000/svg"><path d="M51 39.783c0-5.174-3.975-9.425-9.002-9.806a9.853 9.853 0 001.12-4.573 9.853 9.853 0 00-5.916-9.048c.476-.353.94-.748 1.382-1.194C43.79 9.91 41.87 1.86 41.785 1.52A1.862 1.862 0 0040.19.113 23.87 23.87 0 0037.743 0c-3.407 0-8.05.588-10.825 3.387-4.78 4.822-3.563 12.3-3.274 13.737v.56a9.625 9.625 0 00-6.025-2.117c-5.37 0-9.738 4.413-9.738 9.837 0 1.65.407 3.206 1.12 4.573C3.976 30.358 0 34.609 0 39.783c0 5.174 3.975 9.425 9.002 9.806a9.853 9.853 0 00-1.12 4.574c0 5.424 4.367 9.837 9.737 9.837 3.238 0 6.11-1.606 7.88-4.07 1.772 2.464 4.644 4.07 7.882 4.07 5.37 0 9.738-4.413 9.738-9.837 0-1.65-.407-3.206-1.12-4.574C47.024 49.208 51 44.957 51 39.783zm-11.593-14.38c0 3.357-2.703 6.088-6.026 6.088-3.321 0-6.023-2.73-6.025-6.084v-.013c.005-3.352 2.706-6.077 6.025-6.077 3.323 0 6.026 2.73 6.026 6.087zM29.54 6.04c1.443-1.455 4.432-2.29 8.202-2.29.231 0 .45.003.65.009.221 2.06.23 6.064-2.432 8.75-2.268 2.287-5.45 2.768-7.719 2.768-.42 0-.8-.017-1.13-.041-.233-2.122-.302-6.44 2.43-9.196zM17.62 19.317c3.322 0 6.025 2.73 6.025 6.087 0 3.356-2.703 6.087-6.025 6.087-3.323 0-6.026-2.731-6.026-6.087 0-3.357 2.703-6.087 6.026-6.087zM9.737 45.87c-3.322 0-6.025-2.73-6.025-6.087 0-3.356 2.703-6.087 6.025-6.087 3.322 0 6.025 2.73 6.025 6.087 0 3.357-2.703 6.087-6.025 6.087zm7.882 14.38c-3.323 0-6.026-2.73-6.026-6.087 0-3.356 2.703-6.087 6.026-6.087 3.322 0 6.025 2.73 6.025 6.087 0 3.356-2.703 6.087-6.025 6.087zm7.88-14.38c-3.322 0-6.024-2.73-6.024-6.087 0-3.356 2.702-6.087 6.025-6.087 3.322 0 6.025 2.73 6.025 6.087 0 3.357-2.703 6.087-6.025 6.087zm7.882 14.38c-3.322 0-6.025-2.73-6.025-6.087 0-3.356 2.703-6.087 6.025-6.087 3.323 0 6.026 2.73 6.026 6.087 0 3.356-2.703 6.087-6.026 6.087zm7.882-14.38c-3.323 0-6.026-2.73-6.026-6.087 0-3.356 2.703-6.087 6.026-6.087 3.322 0 6.025 2.73 6.025 6.087 0 3.357-2.703 6.087-6.025 6.087z" fill="#FF00C7"/></svg>